<?xml version="1.0" encoding="UTF-8" standalone="no"?>
<svg
   xmlns:dc="http://purl.org/dc/elements/1.1/"
   xmlns:cc="http://creativecommons.org/ns#"
   xmlns:rdf="http://www.w3.org/1999/02/22-rdf-syntax-ns#"
   xmlns:svg="http://www.w3.org/2000/svg"
   xmlns="http://www.w3.org/2000/svg"
   xmlns:sodipodi="http://sodipodi.sourceforge.net/DTD/sodipodi-0.dtd"
   xmlns:inkscape="http://www.inkscape.org/namespaces/inkscape"
   height="38"
   id="Layer_1"
   version="1.1"
   viewBox="0 0 38 37.999999"
   width="38"
   xml:space="preserve"
   sodipodi:docname="airbnb_w.svg"
   inkscape:version="1.0.2-2 (e86c870879, 2021-01-15)"><metadata
     id="metadata9"><rdf:RDF><cc:Work
         rdf:about=""><dc:format>image/svg+xml</dc:format><dc:type
           rdf:resource="http://purl.org/dc/dcmitype/StillImage" /><dc:title></dc:title></cc:Work></rdf:RDF></metadata><defs
     id="defs7" /><sodipodi:namedview
     pagecolor="#ffffff"
     bordercolor="#666666"
     borderopacity="1"
     objecttolerance="10"
     gridtolerance="10"
     guidetolerance="10"
     inkscape:pageopacity="0"
     inkscape:pageshadow="2"
     inkscape:window-width="1920"
     inkscape:window-height="1017"
     id="namedview5"
     showgrid="false"
     inkscape:snap-text-baseline="false"
     inkscape:zoom="12.962963"
     inkscape:cx="26.652858"
     inkscape:cy="28.35"
     inkscape:window-x="-8"
     inkscape:window-y="-8"
     inkscape:window-maximized="1"
     inkscape:current-layer="Layer_1" /><path
     d="m 35.787883,26.546226 c 0.28496,0.379946 -0.365524,-0.913585 -0.548285,-1.315378 -0.29224,-0.657689 -0.584629,-1.279108 -0.840451,-1.863662 l -0.03657,-0.03649 C 31.841229,17.849556 29.137116,12.295062 26.286958,6.8139996 L 26.17733,6.5945966 C 25.884942,6.0463106 25.592404,5.4617576 25.300313,4.8771276 24.934715,4.2195136 24.56949,3.5249596 23.984638,2.8671966 22.815455,1.4056246 21.134554,0.60174169 19.344026,0.60174169 c -1.82717,0 -3.471578,0.80388291 -4.677552,2.19239491 -0.547986,0.657912 -0.950077,1.352243 -1.315377,2.009931 -0.292389,0.584555 -0.584852,1.169333 -0.877017,1.717394 l -0.109628,0.219403 C 9.5505633,12.221928 6.8098833,17.776497 4.2885323,23.257559 l -0.03657,0.07313 c -0.255598,0.584853 -0.547987,1.205974 -0.84045,1.863588 -0.182464,0.401868 -0.3653,0.840451 -0.547987,1.315452 -0.4753,1.352243 -0.621196,2.630979 -0.438658,3.946654 0.402091,2.74068 2.229186,5.042777 4.750611,6.065989 0.950078,0.401792 1.936574,0.584554 2.9597857,0.584554 0.292389,0 0.657986,-0.03649 0.950077,-0.07313 1.205974,-0.146195 2.448291,-0.547987 3.654265,-1.242541 1.498139,-0.840451 2.923442,-2.046201 4.531283,-3.800236 1.607841,1.754035 3.069412,2.959785 4.531356,3.800236 1.205676,0.694554 2.448217,1.096346 3.653967,1.242541 0.292464,0.03657 0.657987,0.07313 0.950078,0.07313 1.023286,0 2.046499,-0.182762 2.960083,-0.584554 2.557919,-1.023212 4.348521,-3.361876 4.750314,-6.065989 0.292389,-1.279108 -1.18878,-5.056792 -0.328807,-3.910161 z m -16.480424,1.900229 c -1.973364,-2.484784 -3.252174,-4.823373 -3.690832,-6.796737 -0.182762,-0.840451 -0.219329,-1.571199 -0.109628,-2.228963 0.07313,-0.584554 0.292389,-1.096346 0.584927,-1.534706 0.694182,-0.986719 1.863364,-1.607766 3.215607,-1.607766 1.351945,0 2.557993,0.584554 3.215608,1.607766 0.292463,0.43836 0.511791,0.950078 0.584926,1.534706 0.109403,0.657764 0.07283,1.42508 -0.109702,2.228963 -0.438732,1.936797 -1.717617,4.275386 -3.690906,6.796737 z m 14.580194,1.717468 c 0,-1.917457 -1.534706,3.544638 -3.325235,4.275461 -0.877092,0.365524 -1.827169,0.475225 -2.777247,0.365524 -0.913584,-0.109702 -1.827169,-0.402091 -2.777247,-0.950079 -1.315377,-0.730822 -2.630754,-1.863662 -4.165684,-3.544563 2.412022,-2.960083 3.873519,-5.663823 4.421581,-8.075622 0.255895,-1.132914 0.292388,-2.156125 0.182761,-3.106278 -0.14612,-0.913584 -0.475225,-1.754034 -0.986645,-2.484783 -1.132913,-1.644408 -3.032846,-2.594486 -5.152404,-2.594486 -2.11926,0 -4.019564,0.98672 -5.152403,2.594486 -0.511495,0.730823 -0.840451,1.571199 -0.98672,2.484783 -0.145971,0.950153 -0.109702,2.009932 0.182762,3.106278 0.548061,2.411724 2.046498,5.152107 4.421655,8.112115 -1.498139,1.680976 -2.850382,2.813815 -4.165759,3.544563 -0.950078,0.548062 -1.863662,0.840451 -2.777247,0.950153 -0.9867197,0.109404 -1.9367967,-0.03657 -2.7772477,-0.365524 -1.790602,-0.730823 -3.069338,-2.375231 -3.325234,-4.275461 -0.109627,-0.91351 -0.03649,-1.827169 0.32903,-2.850381 0.109702,-0.365226 0.292166,-0.730824 0.474928,-1.169109 0.255822,-0.584628 0.548285,-1.205973 0.84045,-1.827169 l 0.03657,-0.07313 C 8.9295913,18.83613 11.633852,13.281636 14.447667,7.8733346 l 0.109702,-0.21903 c 0.29209,-0.548286 0.584554,-1.132914 0.877018,-1.680976 0.29209,-0.584852 0.621121,-1.132839 1.022913,-1.607766 0.767391,-0.876869 1.790305,-1.352094 2.923218,-1.352094 1.132914,0 2.156201,0.475225 2.923517,1.352168 0.401792,0.474927 0.730823,1.022989 1.023286,1.607767 0.292092,0.548061 0.584555,1.132615 0.876943,1.680975 l 0.109404,0.219031 C 22.445943,5.3289256 29.72682,18.755082 32.316454,24.317266 v 0.03657 c 0.292165,0.584554 0.548062,1.242541 0.84045,1.82717 0.182762,0.438285 0.3653,0.803883 0.474928,1.169108 0.292388,0.950227 0.255821,3.775013 0.255821,2.813815 z"
     id="path2"
     style="fill:#ffffff;stroke-width:0.74475"
     sodipodi:nodetypes="scccccccsccccccccccscccccsccssccccsccccscccccccsccccccccccccccccsccccccccss" /></svg>
