<?xml version="1.0" encoding="UTF-8" standalone="no"?>
<svg
   xmlns:dc="http://purl.org/dc/elements/1.1/"
   xmlns:cc="http://creativecommons.org/ns#"
   xmlns:rdf="http://www.w3.org/1999/02/22-rdf-syntax-ns#"
   xmlns:svg="http://www.w3.org/2000/svg"
   xmlns="http://www.w3.org/2000/svg"
   xmlns:sodipodi="http://sodipodi.sourceforge.net/DTD/sodipodi-0.dtd"
   xmlns:inkscape="http://www.inkscape.org/namespaces/inkscape"
   height="38"
   width="38"
   viewBox="0 0 38 38"
   version="1.1"
   id="svg42"
   sodipodi:docname="vrbo_w.svg"
   inkscape:version="1.0.2-2 (e86c870879, 2021-01-15)">
  <metadata
     id="metadata48">
    <rdf:RDF>
      <cc:Work
         rdf:about="">
        <dc:format>image/svg+xml</dc:format>
        <dc:type
           rdf:resource="http://purl.org/dc/dcmitype/StillImage" />
        <dc:title></dc:title>
      </cc:Work>
    </rdf:RDF>
  </metadata>
  <defs
     id="defs46" />
  <sodipodi:namedview
     pagecolor="#ffffff"
     bordercolor="#666666"
     borderopacity="1"
     objecttolerance="10"
     gridtolerance="10"
     guidetolerance="10"
     inkscape:pageopacity="0"
     inkscape:pageshadow="2"
     inkscape:window-width="1920"
     inkscape:window-height="1017"
     id="namedview44"
     showgrid="false"
     inkscape:snap-others="false"
     inkscape:snap-midpoints="true"
     inkscape:zoom="9.04"
     inkscape:cx="62.5"
     inkscape:cy="20"
     inkscape:window-x="-8"
     inkscape:window-y="-8"
     inkscape:window-maximized="1"
     inkscape:current-layer="svg42" />
  <path
     d="m 19.193098,26.580177 0.9,-1.89 -3.05,-15.56 c -0.85,-4.38 0.17,-6.29 3.61,-6.95 v -0.06 h -3.18 c -0.92,0.46 -2.87,1.84 -1.78,7 z"
     id="path82"
     style="fill:#ffffff" />
  <path
     d="m 17.393098,30.340177 0.89,-1.88 -4,-19.43 c -0.75,-3.77 -0.43,-5.73 0.82,-6.85 v -0.06 h -2.16 c -0.66,1.41 -0.86,2.82 -0.1,6.55 z m -1.84,3.75 0.89,-1.86 -5,-23.61 c -0.88,-3.67 -0.68,-5.35 -0.32,-6.5 H 9.2130978 a 21.46,21.46 0 0 0 0.76,5.88 z m -8.0900006,-31.97 h -2.25 v 0.06 c 1,1.22 1.3,2.71 2.1,6 l 6.0000006,27.83 h 1.35 l -6.0000006,-27.92 a 51.08,51.08 0 0 1 -1.2,-5.97 z m -4.5,0 H 0.55309738 v 0.06 c 2.20000002,0.87 3.28000002,2.54 4.15000002,6.45 l 5.9300006,27.37 h 1.35 l -5.9700006,-27.54 c -1.03,-4.78 -2.11,-5.66 -3.05,-6.34 z m 30.6600006,0 c -2.84,1.66 -4.53,4.73 -8.07,12.34 l 0.09,0.05 c 4.09,-7.66 6.42,-10.71 11.7,-12.3 v -0.09 z m -8.27,12.19 0.09,0.06 c 3.36,-7.91 4.24,-10.12 5.61,-12.19 v -0.06 h -2.72 v 0.08 c 0.28,3.17 -0.78,6.09 -2.98,12.11 z"
     fill="#245abc"
     id="path38"
     style="fill:#ffffff" />
  <path
     d="m 25.173098,14.190177 0.09,0.06 c 2.13,-7.09 2.82,-10.22 0.94,-12.13 h -2.65 v 0.06 c 3,1.06 3.62,4.09 1.62,12.01 z"
     id="path40"
     style="fill:#ffffff" />
</svg>
